<mxfile host="app.diagrams.net" modified="2024-07-04T15:41:32.926Z" agent="Mozilla/5.0 (Windows NT 10.0; Win64; x64) AppleWebKit/537.36 (KHTML, like Gecko) Chrome/126.0.0.0 Safari/537.36" etag="f64nMHHvp97Ex60uFL6u" version="24.6.4" type="google">
  <diagram name="Page-1" id="mP06Pv17fBBayS4PHDyz">
    <mxGraphModel dx="1050" dy="1622" grid="1" gridSize="10" guides="1" tooltips="1" connect="1" arrows="1" fold="1" page="1" pageScale="1" pageWidth="850" pageHeight="1100" math="0" shadow="0">
      <root>
        <mxCell id="0" />
        <mxCell id="1" parent="0" />
        <mxCell id="jbttuR3aVvfcZG-o4yQZ-4" style="edgeStyle=orthogonalEdgeStyle;rounded=0;orthogonalLoop=1;jettySize=auto;html=1;exitX=0.5;exitY=1;exitDx=0;exitDy=0;" edge="1" parent="1">
          <mxGeometry relative="1" as="geometry">
            <mxPoint x="50" y="90" as="sourcePoint" />
            <mxPoint x="50" y="90" as="targetPoint" />
          </mxGeometry>
        </mxCell>
        <mxCell id="jbttuR3aVvfcZG-o4yQZ-5" value="&#xa;&#xa;&#xa;&lt;p class=&quot;MsoNormal&quot;&gt;Begin &lt;/p&gt;&#xa;&#xa;&lt;p class=&quot;MsoNormal&quot;&gt;Input x,y,z&lt;/p&gt;&#xa;&#xa;&lt;p class=&quot;MsoNormal&quot;&gt;Average =(x+y+z)/3&lt;/p&gt;&#xa;&#xa;&lt;p class=&quot;MsoNormal&quot;&gt;Display “average”&lt;/p&gt;&#xa;&#xa;&lt;p class=&quot;MsoNormal&quot;&gt;End&lt;/p&gt;&#xa;&#xa;&#xa;&#xa;&#xa;&#xa;" style="rounded=0;whiteSpace=wrap;html=1;" vertex="1" parent="1">
          <mxGeometry x="10" y="-170" width="120" height="350" as="geometry" />
        </mxCell>
        <mxCell id="jbttuR3aVvfcZG-o4yQZ-7" style="edgeStyle=orthogonalEdgeStyle;rounded=0;orthogonalLoop=1;jettySize=auto;html=1;" edge="1" parent="1" source="jbttuR3aVvfcZG-o4yQZ-6">
          <mxGeometry relative="1" as="geometry">
            <mxPoint x="460" y="30" as="targetPoint" />
          </mxGeometry>
        </mxCell>
        <mxCell id="jbttuR3aVvfcZG-o4yQZ-6" value="begin&amp;nbsp;" style="ellipse;whiteSpace=wrap;html=1;" vertex="1" parent="1">
          <mxGeometry x="400" y="-130" width="120" height="80" as="geometry" />
        </mxCell>
        <mxCell id="jbttuR3aVvfcZG-o4yQZ-10" value="" style="edgeStyle=orthogonalEdgeStyle;rounded=0;orthogonalLoop=1;jettySize=auto;html=1;" edge="1" parent="1" target="jbttuR3aVvfcZG-o4yQZ-9">
          <mxGeometry relative="1" as="geometry">
            <mxPoint x="460" y="90" as="sourcePoint" />
          </mxGeometry>
        </mxCell>
        <mxCell id="jbttuR3aVvfcZG-o4yQZ-12" style="edgeStyle=orthogonalEdgeStyle;rounded=0;orthogonalLoop=1;jettySize=auto;html=1;" edge="1" parent="1" source="jbttuR3aVvfcZG-o4yQZ-9">
          <mxGeometry relative="1" as="geometry">
            <mxPoint x="505" y="330" as="targetPoint" />
          </mxGeometry>
        </mxCell>
        <mxCell id="jbttuR3aVvfcZG-o4yQZ-9" value="Average =(x+y+z)/3" style="rounded=0;whiteSpace=wrap;html=1;" vertex="1" parent="1">
          <mxGeometry x="310" y="170" width="390" height="60" as="geometry" />
        </mxCell>
        <mxCell id="jbttuR3aVvfcZG-o4yQZ-11" value="&#xa;&#xa;&#xa;&lt;p class=&quot;MsoNormal&quot;&gt;Average =(x+y+z)/3&lt;/p&gt;&#xa;&#xa;&#xa;&#xa;&#xa;&#xa;" style="shape=parallelogram;perimeter=parallelogramPerimeter;whiteSpace=wrap;html=1;fixedSize=1;" vertex="1" parent="1">
          <mxGeometry x="380" y="20" width="140" height="60" as="geometry" />
        </mxCell>
        <mxCell id="jbttuR3aVvfcZG-o4yQZ-15" value="" style="edgeStyle=orthogonalEdgeStyle;rounded=0;orthogonalLoop=1;jettySize=auto;html=1;" edge="1" parent="1" source="jbttuR3aVvfcZG-o4yQZ-13" target="jbttuR3aVvfcZG-o4yQZ-14">
          <mxGeometry relative="1" as="geometry" />
        </mxCell>
        <mxCell id="jbttuR3aVvfcZG-o4yQZ-13" value="&#xa;&#xa;&#xa;&lt;p class=&quot;MsoNormal&quot;&gt;Display “average”&lt;/p&gt;&#xa;&#xa;&#xa;&#xa;&#xa;&#xa;" style="shape=parallelogram;perimeter=parallelogramPerimeter;whiteSpace=wrap;html=1;fixedSize=1;" vertex="1" parent="1">
          <mxGeometry x="425" y="330" width="140" height="60" as="geometry" />
        </mxCell>
        <mxCell id="jbttuR3aVvfcZG-o4yQZ-14" value="end" style="ellipse;whiteSpace=wrap;html=1;" vertex="1" parent="1">
          <mxGeometry x="455" y="460" width="80" height="80" as="geometry" />
        </mxCell>
      </root>
    </mxGraphModel>
  </diagram>
</mxfile>
